<svg width="24" height="21" viewBox="0 0 24 21" fill="none" xmlns="http://www.w3.org/2000/svg">
<path d="M0.853984 12.1467C0.741767 12.2587 0.652743 12.3918 0.592003 12.5383C0.531264 12.6848 0.5 12.8419 0.5 13.0005C0.5 13.1591 0.531264 13.3161 0.592003 13.4626C0.652743 13.6091 0.741767 13.7422 0.853984 13.8543L6.64587 19.6473C7.11786 20.1182 7.8815 20.1182 8.35349 19.6473L23.1466 4.85309C23.3729 4.62679 23.5 4.31987 23.5 3.99984C23.5 3.6798 23.3729 3.37288 23.1466 3.14658L20.8534 0.853427C20.6271 0.627131 20.3202 0.5 20.0002 0.5C19.6801 0.5 19.3732 0.627131 19.1469 0.853427L7.49968 12.5007L4.85365 9.85351C4.62716 9.62714 4.32005 9.49998 3.99984 9.49998C3.67962 9.49998 3.37251 9.62714 3.14603 9.85351L0.853984 12.1467Z" fill="#1D9A45"/>
<path d="M7.49934 16.0014L21.7514 1.75042L20.8508 0.84986C20.6244 0.623497 20.3172 0.496338 19.997 0.496338C19.6768 0.496338 19.3697 0.623497 19.1432 0.84986L7.49934 12.5004L4.8533 9.85328C4.74123 9.74106 4.60814 9.65204 4.46163 9.5913C4.31513 9.53056 4.15809 9.4993 3.99949 9.4993C3.8409 9.4993 3.68386 9.53056 3.53735 9.5913C3.39085 9.65204 3.25775 9.74106 3.14568 9.85328L2.24512 10.7538L7.49934 16.0014Z" fill="#21AB4D"/>
<path d="M0.853984 12.1467C0.741767 12.2587 0.652743 12.3918 0.592003 12.5383C0.531264 12.6848 0.5 12.8419 0.5 13.0005C0.5 13.1591 0.531264 13.3161 0.592003 13.4626C0.652743 13.6091 0.741767 13.7422 0.853984 13.8543L6.64587 19.6473C7.11786 20.1182 7.8815 20.1182 8.35349 19.6473L23.1466 4.85309C23.3729 4.62679 23.5 4.31987 23.5 3.99984C23.5 3.6798 23.3729 3.37288 23.1466 3.14658L20.8534 0.853427C20.6271 0.627131 20.3202 0.5 20.0002 0.5C19.6801 0.5 19.3732 0.627131 19.1469 0.853427L7.49968 12.5007L4.85365 9.85351C4.62716 9.62714 4.32005 9.49998 3.99984 9.49998C3.67962 9.49998 3.37251 9.62714 3.14603 9.85351L0.853984 12.1467Z" stroke="#191919" stroke-linecap="round" stroke-linejoin="round"/>
</svg>
