<svg xmlns="http://www.w3.org/2000/svg" width="836" height="1254" viewBox="0 0 836 1254">
<g>
<path d="M 350.73 1101.95 C346.56,1100.92 342.65,1098.97 339.31,1096.37 C339.71,1096.45 340.06,1096.34 340.38,1096.02 C341.72,1094.68 338.67,1091.47 337.03,1092.48 C336.37,1092.89 336.34,1093.45 336.98,1094.36 C335.19,1092.64 333.61,1090.72 332.32,1088.65 C332.62,1088.80 332.95,1088.83 333.25,1088.73 C334.59,1088.26 334.40,1085.09 332.95,1083.58 C331.97,1082.57 330.95,1084.65 331.16,1086.58 C330.63,1085.55 330.18,1084.48 329.80,1083.39 C328.61,1079.95 327.97,1076.78 328.35,1071.14 C328.82,1072.42 329.68,1072.29 330.42,1070.36 C331.15,1068.44 330.28,1065.18 329.04,1065.01 C330.72,1053.38 335.29,1033.66 344.58,995.49 C344.36,997.42 344.69,997.17 346.39,995.47 C347.23,994.63 347.66,993.28 347.35,992.47 C346.78,990.97 346.10,990.69 345.56,991.48 C346.23,988.74 346.92,985.92 347.63,983.00 C349.58,975.03 351.99,964.90 352.99,960.50 C356.23,946.17 373.91,872.59 374.97,869.01 C375.54,867.09 376.00,865.20 376.00,864.81 C376.00,864.44 356.95,864.02 332.87,863.83 C334.31,863.41 334.48,862.33 332.75,861.73 C331.14,861.17 329.00,861.96 329.00,863.11 C329.00,863.39 329.37,863.64 329.95,863.81 C329.55,863.80 329.15,863.80 328.75,863.80 C319.70,863.74 312.39,863.69 306.43,863.63 C306.79,863.46 307.00,863.24 307.00,863.00 C307.00,862.45 305.88,862.00 304.50,862.00 C303.12,862.00 302.00,862.45 302.00,863.00 C302.00,863.22 302.18,863.43 302.49,863.59 C295.29,863.51 290.40,863.41 286.90,863.24 C286.94,863.22 286.97,863.21 287.00,863.19 C288.00,862.48 283.76,860.15 282.40,860.68 C280.58,861.38 280.64,862.34 282.24,862.88 C279.08,862.51 277.69,861.96 275.50,861.08 C271.19,859.35 267.76,856.91 263.32,852.42 C262.95,852.06 262.60,851.69 262.26,851.33 C262.84,851.77 263.59,852.26 264.50,852.78 C267.45,854.49 268.20,854.25 267.00,852.00 C266.41,850.90 265.27,850.00 264.46,850.00 C263.66,850.00 263.00,849.56 263.00,849.03 C263.00,848.50 262.34,848.32 261.53,848.63 C260.89,848.87 260.65,849.23 260.80,849.70 C259.89,848.64 259.08,847.59 258.38,846.53 C259.14,846.26 259.78,844.58 259.30,843.34 C259.02,842.60 258.38,842.00 257.89,842.00 C257.28,842.00 256.97,843.14 257.02,844.29 C254.86,840.26 254.00,835.97 254.00,830.39 C254.00,830.29 254.00,830.19 254.00,830.09 C254.03,831.71 254.47,833.00 255.00,833.00 C255.55,833.00 256.00,832.10 256.00,831.00 C256.00,829.90 256.03,828.67 256.08,828.28 C256.12,827.88 255.67,827.39 255.07,827.19 C254.53,827.01 254.11,827.91 254.02,829.33 C254.22,823.26 256.02,815.00 257.23,815.00 C257.72,815.00 257.89,814.63 257.61,814.18 C256.94,813.09 264.97,787.60 266.12,787.16 C266.61,786.98 266.80,786.49 266.55,786.08 C266.14,785.41 284.70,727.36 286.88,722.50 C287.38,721.40 288.32,718.50 288.99,716.06 C289.65,713.62 290.67,710.47 291.26,709.06 C291.84,707.65 292.25,706.16 292.16,705.75 C292.07,705.34 292.48,705.00 293.06,705.00 C293.64,705.00 293.86,704.58 293.54,704.07 C293.11,703.37 310.51,649.22 314.54,638.75 C315.18,637.10 312.56,637.00 268.16,637.00 C257.87,637.00 249.04,636.96 241.71,636.88 C242.48,636.70 243.00,636.38 243.00,636.00 C243.00,635.45 241.88,635.00 240.50,635.00 C239.12,635.00 238.00,635.45 238.00,636.00 C238.00,636.35 238.47,636.67 239.16,636.84 C237.02,636.82 235.02,636.78 233.16,636.75 C233.67,636.56 234.00,636.30 234.00,636.00 C234.00,635.45 232.88,635.00 231.50,635.00 C230.12,635.00 229.00,635.45 229.00,636.00 C229.00,636.26 229.25,636.49 229.65,636.67 C225.49,636.57 222.22,636.44 219.84,636.29 C219.56,635.84 219.06,635.21 218.47,634.61 C217.63,633.77 216.28,633.34 215.47,633.65 C213.92,634.25 213.67,635.01 214.56,635.59 C213.66,635.38 212.77,635.13 211.90,634.86 C212.12,634.58 211.67,633.81 210.47,632.61 C209.63,631.77 208.23,631.36 207.35,631.69 C206.26,632.11 206.18,632.42 207.32,633.14 C203.15,631.28 199.47,628.78 196.44,625.75 C198.26,626.96 199.48,626.31 197.80,624.16 C195.95,621.80 194.73,621.05 193.72,621.67 C193.49,621.81 193.51,622.19 193.73,622.69 C192.41,620.99 191.26,619.16 190.31,617.21 C187.80,612.11 187.51,610.48 187.58,602.00 C187.61,598.91 187.67,596.68 188.10,593.92 C188.27,594.56 188.61,595.00 189.00,595.00 C189.55,595.00 190.00,593.85 190.00,592.44 C190.00,590.99 189.57,590.15 189.00,590.50 C188.90,590.56 188.81,590.65 188.72,590.76 C189.89,585.48 192.32,577.62 197.36,561.50 C202.70,544.45 208.00,527.58 209.15,524.00 C214.37,507.71 215.86,503.01 218.02,496.00 C219.13,492.39 219.80,490.22 221.03,486.30 C221.00,487.39 221.73,487.13 223.39,485.47 C224.23,484.63 224.64,483.23 224.31,482.35 C223.80,481.05 223.46,481.18 222.38,483.13 C222.01,483.81 221.66,484.52 221.41,485.10 C223.03,479.98 225.60,471.92 230.85,455.50 C231.82,452.46 233.05,448.58 234.44,444.17 C234.06,445.54 234.31,445.82 235.36,445.42 C237.28,444.68 238.21,442.25 236.89,441.43 C235.87,440.80 235.55,440.83 234.97,442.46 C239.05,429.52 244.34,412.60 248.55,399.00 C249.77,395.04 250.96,391.21 252.08,387.63 C252.28,387.84 252.79,388.00 253.39,388.00 C255.15,388.00 256.07,385.73 255.01,384.02 C254.41,383.05 253.94,383.24 253.11,384.80 C252.98,385.03 252.86,385.26 252.75,385.49 C256.67,372.98 259.59,363.91 259.84,363.50 C260.17,362.95 260.54,361.89 260.65,361.15 C260.86,359.72 267.84,337.29 270.95,328.00 C271.97,324.98 276.03,312.38 279.98,300.00 C283.92,287.62 288.10,275.02 289.25,272.00 C289.65,270.96 290.07,269.95 290.51,268.98 C290.43,269.72 290.89,270.00 292.01,270.00 C294.10,270.00 295.74,266.01 294.49,263.98 C294.18,263.48 293.68,263.56 293.11,264.07 C297.66,256.68 303.98,251.90 312.71,249.10 L 314.26 248.61 C313.72,248.99 314.00,249.38 314.94,249.96 C316.65,251.02 318.67,250.31 319.40,248.41 C319.80,247.36 319.40,247.14 317.59,247.54 L 319.50 246.93 L 442.55 247.22 L 565.60 247.50 L 573.34 251.32 C582.55,255.88 588.11,262.12 590.62,270.76 C592.92,278.67 592.04,284.88 586.06,303.00 C583.24,311.52 575.55,334.78 568.97,354.68 C562.39,374.58 557.00,391.33 557.00,391.90 C557.00,392.59 574.03,393.03 608.75,393.22 L 660.50 393.50 L 665.78 396.28 C667.32,397.10 668.77,397.97 670.12,398.92 C669.14,398.40 668.23,398.09 667.80,398.23 C667.14,398.45 667.65,399.52 669.02,400.81 C671.33,402.95 674.03,403.74 673.97,402.25 C673.96,402.16 673.93,402.05 673.88,401.94 C674.75,402.74 675.56,403.59 676.32,404.46 C676.08,404.49 675.90,404.83 675.68,405.39 C675.35,406.24 675.77,407.63 676.61,408.47 C678.73,410.59 680.33,410.45 679.07,408.25 C678.93,408.01 678.80,407.78 678.67,407.56 C679.53,408.86 680.28,410.22 680.93,411.64 C680.61,411.42 680.30,411.52 680.01,411.98 C679.53,412.76 679.50,414.09 679.93,414.95 C680.37,415.80 680.52,417.07 680.27,417.77 C680.02,418.47 680.27,420.34 680.82,421.93 C682.15,425.72 680.69,437.45 678.64,439.50 C677.79,440.36 677.35,441.74 677.67,442.57 C678.11,443.73 678.36,444.14 679.01,442.84 C677.49,446.66 675.53,451.38 672.99,457.33 C672.93,456.62 672.34,456.31 671.56,456.61 C670.77,456.92 670.37,457.80 670.67,458.58 C671.00,459.44 671.61,459.66 672.12,459.39 C671.58,460.64 671.03,461.94 670.45,463.29 C670.45,463.28 670.45,463.27 670.46,463.26 C670.97,461.56 670.78,461.15 669.70,461.56 C668.02,462.21 665.85,466.52 666.76,467.42 C667.38,468.05 668.64,466.99 669.58,465.30 C669.07,466.50 668.55,467.73 668.00,469.00 C666.62,472.22 665.21,475.50 663.77,478.86 C663.82,478.37 663.76,477.82 663.58,477.35 C663.02,475.90 662.73,475.82 662.04,476.94 C661.57,477.70 661.43,478.95 661.73,479.73 C662.08,480.64 662.57,480.79 663.21,480.19 C654.58,500.41 644.95,523.38 633.50,551.00 C615.95,593.33 609.00,610.25 609.00,610.64 C609.00,610.79 625.54,611.04 645.75,611.20 L 682.50 611.50 L 687.86 614.47 C692.94,617.28 696.88,620.99 699.57,625.26 C699.00,625.03 698.96,625.59 699.41,627.09 C699.81,628.42 700.33,630.77 700.56,632.33 C700.79,633.88 701.24,635.57 701.55,636.08 C701.86,636.59 702.55,637.00 703.08,637.00 C703.36,637.00 703.50,636.66 703.53,636.13 C703.85,638.45 703.87,640.84 703.59,643.26 C702.85,642.65 699.98,646.17 700.53,647.05 C700.83,647.54 700.45,649.19 699.68,650.72 C698.91,652.25 698.49,654.11 698.76,654.86 C698.93,655.36 699.07,655.64 699.23,655.71 C698.63,656.62 697.86,657.75 696.95,659.07 C697.10,658.26 696.61,658.12 695.44,658.77 C693.36,659.94 687.97,668.15 688.61,669.18 C688.86,669.58 689.05,669.83 689.30,669.85 C684.12,677.03 677.56,685.98 670.33,695.69 C670.52,695.19 670.47,694.79 670.15,694.59 C668.90,693.82 665.79,696.85 666.55,698.08 C667.22,699.16 667.39,699.27 668.74,697.83 C666.50,700.84 664.21,703.90 661.88,707.00 C642.98,732.15 617.16,766.79 602.56,786.57 C602.85,786.02 602.98,785.44 602.82,784.96 C602.53,784.08 601.92,784.22 600.70,785.45 C599.75,786.39 599.26,787.62 599.61,788.18 C600.03,788.85 600.97,788.46 601.73,787.69 C601.15,788.49 600.58,789.26 600.03,790.00 C596.22,795.17 592.32,800.48 588.56,805.58 C588.85,805.02 588.98,804.44 588.82,803.96 C588.53,803.08 587.92,803.22 586.70,804.45 C585.75,805.39 585.26,806.62 585.61,807.18 C586.03,807.86 586.98,807.45 587.75,806.68 C578.05,819.85 569.44,831.52 566.14,836.00 C561.47,842.33 555.18,850.88 552.16,855.00 C549.14,859.12 544.33,865.65 541.48,869.50 C533.76,879.91 525.97,890.55 518.01,901.56 C518.46,900.72 518.35,900.22 517.69,899.81 C516.29,898.94 515.00,900.82 515.71,902.69 C516.04,903.54 516.35,903.66 516.97,902.99 C492.78,936.44 466.92,973.34 436.56,1017.69 C388.03,1088.57 384.05,1094.70 378.41,1097.82 C377.53,1098.30 376.62,1098.72 375.49,1099.28 C369.64,1102.24 357.31,1103.57 350.73,1101.95 ZM 438.60 902.01 C450.17,886.24 467.55,863.28 492.00,831.42 C501.62,818.88 512.45,804.77 516.06,800.06 C519.67,795.35 526.62,786.33 531.50,780.00 C536.37,773.67 543.12,764.90 546.49,760.50 C552.60,752.51 572.16,727.14 589.66,704.50 C594.76,697.90 601.67,689.01 605.02,684.75 L 611.10 677.00 L 588.16 677.00 C568.08,677.00 564.42,676.75 558.86,675.02 C545.98,671.00 537.66,661.53 535.66,649.56 C536.66,652.07 537.40,650.19 537.14,645.72 C536.89,641.53 535.85,639.51 535.32,640.87 C535.43,639.52 535.61,638.16 535.86,636.78 C536.93,631.01 570.99,543.91 583.48,515.00 C584.79,511.98 587.89,504.33 590.37,498.00 C597.17,480.68 604.65,462.58 606.42,459.15 C607.29,457.47 608.00,455.85 608.00,455.55 C608.00,455.25 586.71,455.00 560.69,455.00 C515.48,455.00 513.12,454.91 507.25,452.93 C500.05,450.50 493.18,444.86 489.23,438.15 C488.63,437.12 488.16,436.27 487.79,435.44 C488.74,436.14 489.90,433.89 489.30,432.34 C489.02,431.60 488.38,431.00 487.89,431.00 C487.33,431.00 487.02,431.99 487.02,433.05 C486.59,431.02 486.54,428.39 486.58,423.50 L 486.66 413.50 L 491.03 400.70 C491.17,400.87 491.78,401.00 492.50,401.00 C493.33,401.00 494.00,400.27 494.00,399.38 C494.00,398.05 493.73,397.98 492.50,399.00 C491.92,399.48 491.41,399.99 491.16,400.32 L 498.77 378.00 C499.20,376.75 499.63,375.48 500.07,374.19 C500.03,374.36 500.00,374.48 500.00,374.53 C500.00,374.76 500.64,374.69 501.42,374.39 C503.31,373.67 504.02,371.64 502.96,369.94 C502.32,368.90 501.86,369.25 501.06,371.35 C501.01,371.47 500.96,371.60 500.92,371.72 C507.13,353.51 514.16,332.98 517.34,323.75 L 523.79 305.00 L 432.14 305.01 L 340.50 305.02 L 338.33 311.76 C337.14,315.47 332.95,328.62 329.02,341.00 C325.10,353.38 319.92,369.58 317.52,377.00 C315.25,384.03 312.78,391.76 308.44,405.40 C308.68,404.34 308.75,403.41 308.58,403.25 C307.88,402.55 305.00,406.20 305.55,407.08 C306.36,408.39 307.34,408.22 308.00,406.80 C304.53,417.71 299.90,432.29 293.34,453.00 C289.77,464.27 285.78,476.65 284.48,480.50 C283.19,484.35 279.13,496.95 275.48,508.50 C265.14,541.22 260.06,556.92 257.43,564.31 C256.09,568.05 255.00,571.54 255.00,572.06 C255.00,572.64 275.41,573.00 307.82,573.00 C333.56,573.00 348.10,573.02 357.06,573.57 C356.67,573.75 356.49,573.98 356.63,574.21 C357.33,575.35 361.00,575.18 361.00,574.01 C361.00,573.96 360.99,573.92 360.98,573.87 C368.99,574.67 371.43,576.20 375.69,579.13 C381.29,582.98 384.62,587.49 387.15,594.65 C390.89,605.23 390.67,606.02 360.01,695.00 C354.99,709.58 348.38,728.92 345.32,738.00 C337.74,760.45 323.40,802.11 322.54,804.19 C321.88,805.77 325.41,805.91 373.17,806.19 L 424.50 806.50 L 427.55 808.00 L 427.53 808.00 C426.64,808.00 426.29,808.59 426.64,809.49 C426.95,810.32 427.61,810.74 428.10,810.44 C428.93,809.92 429.15,809.17 428.86,808.64 L 430.01 809.20 C436.99,812.64 443.45,819.01 445.57,824.55 C447.75,830.25 447.03,841.48 443.71,853.50 C441.24,862.48 435.42,884.54 430.53,903.50 C429.11,909.00 427.69,914.40 427.36,915.50 C426.54,918.31 427.31,917.39 438.60,902.01 ZM 593.00 793.62 C593.00,795.58 596.66,795.34 597.43,793.33 C598.35,790.93 596.45,789.38 594.54,790.96 C593.69,791.67 593.00,792.86 593.00,793.62 ZM 433.00 912.61 C433.00,914.25 436.58,914.49 437.55,912.91 C437.92,912.31 437.80,911.40 437.28,910.88 C436.02,909.62 433.00,910.85 433.00,912.61 ZM 567.44 831.70 C567.98,833.12 568.22,833.08 569.50,831.40 C571.34,828.96 571.36,828.00 569.56,828.00 C567.65,828.00 566.67,829.71 567.44,831.70 ZM 198.46 558.26 C197.91,560.50 198.07,560.91 199.33,560.43 C200.18,560.10 200.63,559.20 200.33,558.42 C200.03,557.64 200.27,557.00 200.86,557.00 C201.45,557.00 201.67,556.29 201.34,555.43 C200.58,553.46 199.35,554.67 198.46,558.26 ZM 265.57 793.33 C266.53,795.82 268.97,795.42 268.47,792.86 C267.95,790.14 267.72,789.94 266.19,790.88 C265.50,791.31 265.22,792.41 265.57,793.33 ZM 279.00 303.53 C279.00,303.76 279.64,303.69 280.42,303.39 C282.31,302.67 283.02,300.64 281.96,298.94 C281.32,297.90 280.86,298.25 280.06,300.35 C279.48,301.88 279.00,303.31 279.00,303.53 ZM 348.07 1101.12 C349.41,1101.50 350.60,1101.85 350.72,1101.90 C350.84,1101.96 350.68,1101.32 350.36,1100.50 C350.05,1099.68 349.50,1098.97 349.14,1098.92 C348.79,1098.88 347.69,1098.69 346.69,1098.50 C344.01,1097.99 345.24,1100.33 348.07,1101.12 ZM 682.53 613.79 C683.57,614.77 685.26,615.57 686.30,615.57 C688.03,615.57 688.01,615.42 685.98,613.79 C684.77,612.80 683.07,612.00 682.21,612.00 C680.91,612.00 680.97,612.30 682.53,613.79 ZM 660.58 395.86 C661.63,396.88 663.13,397.48 663.89,397.19 C664.99,396.79 664.89,396.39 663.45,395.34 C662.44,394.60 660.95,394.00 660.13,394.00 C658.98,394.00 659.08,394.41 660.58,395.86 ZM 436.00 872.62 C436.00,874.50 437.65,874.36 438.39,872.42 C439.45,869.66 439.09,868.68 437.50,870.00 C436.67,870.68 436.00,871.86 436.00,872.62 ZM 500.61 923.18 C501.00,923.81 501.80,923.63 502.73,922.69 C503.56,921.87 504.05,920.64 503.82,919.96 C503.53,919.08 502.92,919.22 501.70,920.45 C500.75,921.39 500.26,922.62 500.61,923.18 ZM 492.58 932.65 C492.19,933.68 492.55,934.04 493.74,933.81 C494.70,933.63 495.63,932.70 495.81,931.74 C496.22,929.61 493.45,930.39 492.58,932.65 ZM 478.19 301.92 C477.99,302.52 478.58,303.00 479.50,303.00 C480.42,303.00 481.01,302.52 480.81,301.92 C480.61,301.33 480.02,300.85 479.50,300.85 C478.98,300.85 478.39,301.33 478.19,301.92 ZM 701.51 628.92 C701.86,629.72 702.17,630.53 702.44,631.36 C702.27,630.99 702.07,630.67 701.87,630.41 C701.49,629.93 701.36,629.33 701.51,628.92 ZM 700.53 626.91 C700.73,627.27 700.91,627.63 701.09,628.00 C700.43,627.99 700.14,627.58 700.46,627.07 C700.49,627.02 700.51,626.97 700.53,626.91 ZM 702.68 647.92 C702.52,648.52 702.33,649.13 702.13,649.73 C702.32,649.12 702.51,648.52 702.68,647.92 ZM 681.64 435.83 C681.47,436.32 681.29,436.83 681.10,437.36 C681.26,436.91 681.43,436.43 681.61,435.91 C681.62,435.88 681.63,435.86 681.64,435.83 ZM 683.54 421.22 C683.58,421.52 683.61,421.82 683.63,422.12 C683.64,422.15 683.64,422.19 683.64,422.22 C683.61,421.88 683.58,421.55 683.54,421.22 Z" fill="rgba(0,0,0,1)"/>
<path d="M 348.07 1101.12 C345.24,1100.33 344.01,1097.99 346.69,1098.50 C347.69,1098.69 348.79,1098.88 349.14,1098.92 C349.50,1098.97 350.05,1099.68 350.36,1100.50 C350.68,1101.32 350.84,1101.96 350.72,1101.90 C350.60,1101.85 349.41,1101.50 348.07,1101.12 ZM 337.61 1095.12 C336.36,1093.74 336.20,1093.00 337.03,1092.48 C338.67,1091.47 341.72,1094.68 340.38,1096.02 C339.68,1096.72 338.81,1096.44 337.61,1095.12 ZM 331.39 1087.58 C330.59,1085.49 331.80,1082.39 332.95,1083.58 C334.40,1085.09 334.59,1088.26 333.25,1088.73 C332.56,1088.97 331.73,1088.45 331.39,1087.58 ZM 328.00 1068.50 C328.00,1066.57 328.42,1065.00 328.93,1065.00 C330.24,1065.00 331.17,1068.39 330.42,1070.36 C329.33,1073.18 328.00,1072.16 328.00,1068.50 ZM 344.79 994.00 C345.26,990.78 346.43,990.08 347.35,992.47 C347.66,993.28 347.23,994.63 346.39,995.47 C344.34,997.52 344.28,997.46 344.79,994.00 ZM 492.58 932.65 C493.45,930.39 496.22,929.61 495.81,931.74 C495.63,932.70 494.70,933.63 493.74,933.81 C492.55,934.04 492.19,933.68 492.58,932.65 ZM 500.61 923.18 C500.26,922.62 500.75,921.39 501.70,920.45 C502.92,919.22 503.53,919.08 503.82,919.96 C504.05,920.64 503.56,921.87 502.73,922.69 C501.80,923.63 501.00,923.81 500.61,923.18 ZM 433.00 912.61 C433.00,910.85 436.02,909.62 437.28,910.88 C437.80,911.40 437.92,912.31 437.55,912.91 C436.58,914.49 433.00,914.25 433.00,912.61 ZM 515.71 902.69 C515.00,900.82 516.29,898.94 517.69,899.81 C518.53,900.33 518.48,900.98 517.53,902.29 C516.51,903.68 516.12,903.77 515.71,902.69 ZM 436.00 872.62 C436.00,871.86 436.67,870.68 437.50,870.00 C439.09,868.68 439.45,869.66 438.39,872.42 C437.65,874.36 436.00,874.50 436.00,872.62 ZM 283.75 863.21 C280.80,862.84 280.11,861.55 282.40,860.68 C283.76,860.15 288.00,862.48 287.00,863.19 C286.72,863.38 285.26,863.39 283.75,863.21 ZM 302.00 863.00 C302.00,862.45 303.12,862.00 304.50,862.00 C305.88,862.00 307.00,862.45 307.00,863.00 C307.00,863.55 305.88,864.00 304.50,864.00 C303.12,864.00 302.00,863.55 302.00,863.00 ZM 329.00 863.11 C329.00,861.96 331.14,861.17 332.75,861.73 C334.93,862.49 334.10,864.00 331.50,864.00 C330.12,864.00 329.00,863.60 329.00,863.11 ZM 264.50 852.78 C260.90,850.71 259.87,849.26 261.53,848.63 C262.34,848.32 263.00,848.50 263.00,849.03 C263.00,849.56 263.66,850.00 264.46,850.00 C265.27,850.00 266.41,850.90 267.00,852.00 C268.20,854.25 267.45,854.49 264.50,852.78 ZM 257.68 846.35 C256.69,845.35 256.85,842.00 257.89,842.00 C258.38,842.00 259.02,842.60 259.30,843.34 C259.92,844.95 258.65,847.31 257.68,846.35 ZM 254.00 829.92 C254.00,828.16 254.46,826.99 255.07,827.19 C255.67,827.39 256.12,827.88 256.08,828.28 C256.03,828.67 256.00,829.90 256.00,831.00 C256.00,832.10 255.55,833.00 255.00,833.00 C254.45,833.00 254.00,831.61 254.00,829.92 ZM 567.44 831.70 C566.67,829.71 567.65,828.00 569.56,828.00 C571.36,828.00 571.34,828.96 569.50,831.40 C568.22,833.08 567.98,833.12 567.44,831.70 ZM 426.64 809.49 C426.29,808.59 426.64,808.00 427.53,808.00 C429.15,808.00 429.52,809.56 428.10,810.44 C427.61,810.74 426.95,810.32 426.64,809.49 ZM 585.61 807.18 C585.26,806.62 585.75,805.39 586.70,804.45 C587.92,803.22 588.53,803.08 588.82,803.96 C589.37,805.60 586.44,808.53 585.61,807.18 ZM 265.57 793.33 C265.22,792.41 265.50,791.31 266.19,790.88 C267.72,789.94 267.95,790.14 268.47,792.86 C268.97,795.42 266.53,795.82 265.57,793.33 ZM 593.00 793.62 C593.00,792.86 593.69,791.67 594.54,790.96 C596.45,789.38 598.35,790.93 597.43,793.33 C596.66,795.34 593.00,795.58 593.00,793.62 ZM 599.61 788.18 C599.26,787.62 599.75,786.39 600.70,785.45 C601.92,784.22 602.53,784.08 602.82,784.96 C603.37,786.60 600.44,789.53 599.61,788.18 ZM 666.55 698.08 C665.79,696.85 668.90,693.82 670.15,694.59 C670.73,694.95 670.43,695.97 669.41,697.10 C667.44,699.28 667.32,699.32 666.55,698.08 ZM 688.61 669.18 C687.97,668.15 693.36,659.94 695.44,658.77 C698.08,657.30 697.25,659.89 693.41,665.12 C689.62,670.29 689.41,670.47 688.61,669.18 ZM 698.76 654.86 C698.49,654.11 698.91,652.25 699.68,650.72 C700.45,649.19 700.83,647.54 700.53,647.05 C699.98,646.16 702.91,642.58 703.62,643.28 C704.10,643.76 701.30,653.05 700.12,654.86 C699.38,656.01 699.17,656.01 698.76,654.86 ZM 535.62 649.46 C535.28,648.57 535.00,645.98 535.00,643.72 C535.00,638.33 536.81,640.02 537.14,645.72 C537.41,650.24 536.64,652.12 535.62,649.46 ZM 216.75 636.28 C213.76,635.83 213.13,634.55 215.47,633.65 C216.28,633.34 217.63,633.77 218.47,634.61 C219.76,635.90 220.59,637.35 219.75,636.85 C219.61,636.77 218.26,636.51 216.75,636.28 ZM 229.00 636.00 C229.00,635.45 230.12,635.00 231.50,635.00 C232.88,635.00 234.00,635.45 234.00,636.00 C234.00,636.55 232.88,637.00 231.50,637.00 C230.12,637.00 229.00,636.55 229.00,636.00 ZM 238.00 636.00 C238.00,635.45 239.12,635.00 240.50,635.00 C241.88,635.00 243.00,635.45 243.00,636.00 C243.00,636.55 241.88,637.00 240.50,637.00 C239.12,637.00 238.00,636.55 238.00,636.00 ZM 701.55 636.08 C701.24,635.57 700.79,633.88 700.56,632.33 C700.33,630.77 699.81,628.42 699.41,627.09 C698.89,625.37 699.02,624.89 699.86,625.41 C700.50,625.81 700.77,626.56 700.46,627.07 C700.14,627.58 700.43,628.00 701.11,628.00 C701.78,628.00 702.04,628.30 701.68,628.66 C701.31,629.02 701.40,629.81 701.87,630.41 C703.25,632.17 704.13,637.00 703.08,637.00 C702.55,637.00 701.86,636.59 701.55,636.08 ZM 208.13 633.62 C206.18,632.54 206.05,632.20 207.35,631.69 C208.23,631.36 209.63,631.77 210.47,632.61 C213.17,635.32 212.06,635.79 208.13,633.62 ZM 195.07 624.57 C193.85,623.27 193.24,621.97 193.72,621.67 C194.73,621.05 195.95,621.80 197.80,624.16 C199.88,626.82 197.51,627.18 195.07,624.57 ZM 682.53 613.79 C680.97,612.30 680.91,612.00 682.21,612.00 C683.07,612.00 684.77,612.80 685.98,613.79 C688.01,615.42 688.03,615.57 686.30,615.57 C685.26,615.57 683.57,614.77 682.53,613.79 ZM 188.00 593.06 C188.00,591.99 188.45,590.84 189.00,590.50 C189.57,590.15 190.00,590.99 190.00,592.44 C190.00,593.85 189.55,595.00 189.00,595.00 C188.45,595.00 188.00,594.13 188.00,593.06 ZM 356.63 574.21 C356.36,573.78 357.24,573.33 358.57,573.22 C359.91,573.11 361.00,573.47 361.00,574.01 C361.00,575.18 357.33,575.35 356.63,574.21 ZM 198.46 558.26 C199.35,554.67 200.58,553.46 201.34,555.43 C201.67,556.29 201.45,557.00 200.86,557.00 C200.27,557.00 200.03,557.64 200.33,558.42 C200.63,559.20 200.18,560.10 199.33,560.43 C198.07,560.91 197.91,560.50 198.46,558.26 ZM 221.04 486.25 C221.05,485.84 221.66,484.43 222.38,483.13 C223.46,481.18 223.80,481.05 224.31,482.35 C224.64,483.23 224.23,484.63 223.39,485.47 C221.70,487.15 220.98,487.39 221.04,486.25 ZM 661.73 479.73 C661.43,478.95 661.57,477.70 662.04,476.94 C662.73,475.82 663.02,475.90 663.58,477.35 C663.96,478.33 663.82,479.58 663.27,480.13 C662.60,480.80 662.09,480.67 661.73,479.73 ZM 666.76 467.42 C665.85,466.52 668.02,462.21 669.70,461.56 C670.78,461.15 670.97,461.56 670.46,463.26 C669.64,465.99 667.61,468.28 666.76,467.42 ZM 670.67 458.58 C670.37,457.80 670.77,456.92 671.56,456.61 C672.39,456.30 673.00,456.66 673.00,457.47 C673.00,459.47 671.32,460.27 670.67,458.58 ZM 234.56 443.74 C235.44,440.87 235.65,440.67 236.89,441.43 C238.21,442.25 237.28,444.68 235.36,445.42 C234.21,445.86 234.03,445.48 234.56,443.74 ZM 677.67 442.57 C677.35,441.74 677.79,440.36 678.64,439.50 C680.69,437.45 682.15,425.72 680.82,421.93 C680.27,420.34 680.02,418.47 680.27,417.77 C680.52,417.07 680.37,415.80 679.93,414.95 C679.50,414.09 679.53,412.76 680.01,411.98 C681.26,409.96 682.97,414.89 683.67,422.47 C684.11,427.36 683.72,429.90 681.61,435.91 C678.65,444.33 678.46,444.65 677.67,442.57 ZM 487.68 435.35 C486.69,434.35 486.85,431.00 487.89,431.00 C488.38,431.00 489.02,431.60 489.30,432.34 C489.92,433.95 488.65,436.31 487.68,435.35 ZM 676.61 408.47 C675.77,407.63 675.35,406.24 675.68,405.39 C676.31,403.75 676.66,404.05 679.07,408.25 C680.33,410.45 678.73,410.59 676.61,408.47 ZM 305.55 407.08 C305.00,406.20 307.88,402.55 308.58,403.25 C308.77,403.43 308.66,404.58 308.34,405.79 C307.74,408.09 306.52,408.66 305.55,407.08 ZM 669.02 400.81 C667.65,399.52 667.14,398.45 667.80,398.23 C669.02,397.83 673.92,401.01 673.97,402.25 C674.03,403.74 671.33,402.95 669.02,400.81 ZM 491.00 400.62 C491.00,400.41 491.67,399.68 492.50,399.00 C493.73,397.98 494.00,398.05 494.00,399.38 C494.00,400.27 493.33,401.00 492.50,401.00 C491.67,401.00 491.00,400.83 491.00,400.62 ZM 660.58 395.86 C659.08,394.41 658.98,394.00 660.13,394.00 C660.95,394.00 662.44,394.60 663.45,395.34 C664.89,396.39 664.99,396.79 663.89,397.19 C663.13,397.48 661.63,396.88 660.58,395.86 ZM 252.00 387.43 C252.00,387.12 252.50,385.94 253.11,384.80 C253.94,383.24 254.41,383.05 255.01,384.02 C256.07,385.73 255.15,388.00 253.39,388.00 C252.63,388.00 252.00,387.75 252.00,387.43 ZM 500.00 374.53 C500.00,374.31 500.48,372.88 501.06,371.35 C501.86,369.25 502.32,368.90 502.96,369.94 C504.02,371.64 503.31,373.67 501.42,374.39 C500.64,374.69 500.00,374.76 500.00,374.53 ZM 279.00 303.53 C279.00,303.31 279.48,301.88 280.06,300.35 C280.86,298.25 281.32,297.90 281.96,298.94 C283.02,300.64 282.31,302.67 280.42,303.39 C279.64,303.69 279.00,303.76 279.00,303.53 ZM 478.19 301.92 C478.39,301.33 478.98,300.85 479.50,300.85 C480.02,300.85 480.61,301.33 480.81,301.92 C481.01,302.52 480.42,303.00 479.50,303.00 C478.58,303.00 477.99,302.52 478.19,301.92 ZM 290.70 268.25 C291.93,264.85 293.76,262.80 294.49,263.98 C295.74,266.01 294.10,270.00 292.01,270.00 C290.58,270.00 290.23,269.54 290.70,268.25 ZM 314.94 249.96 C313.25,248.92 313.69,248.48 317.22,247.63 C319.34,247.12 319.82,247.29 319.40,248.41 C318.67,250.31 316.65,251.02 314.94,249.96 Z" fill="rgba(0,0,1,1)"/>
</g>
</svg>