<svg width="9" height="11" viewBox="0 0 9 11" fill="none" xmlns="http://www.w3.org/2000/svg">
<path d="M2.19441 5.73987H1.9458C1.14212 5.73987 0.740272 5.73987 0.568986 5.47488C0.3977 5.20995 0.560904 4.84081 0.887313 4.10253L1.86862 1.883C2.16539 1.21175 2.31378 0.876122 2.60165 0.688061C2.88952 0.5 3.25486 0.5 3.98562 0.5H5.11738C6.00507 0.5 6.44891 0.5 6.61628 0.789981C6.78371 1.07996 6.56352 1.46735 6.12309 2.24212L5.54248 3.26352C5.32354 3.64868 5.21407 3.84127 5.21559 3.99891C5.21759 4.20378 5.32652 4.39253 5.50251 4.49588C5.63792 4.57545 5.85854 4.57545 6.29984 4.57545C6.8577 4.57545 7.13666 4.57545 7.28194 4.67203C7.47065 4.79748 7.56945 5.02194 7.53484 5.24673C7.50819 5.41974 7.32056 5.6272 6.94529 6.04217L3.94711 9.3575C3.35821 10.0087 3.06376 10.3343 2.86604 10.2313C2.66831 10.1282 2.76326 9.69869 2.95315 8.83961L3.32517 7.15687C3.46974 6.50275 3.54205 6.17569 3.36818 5.95778C3.1943 5.73987 2.861 5.73987 2.19441 5.73987Z" stroke="#222222" stroke-linejoin="round"/>
</svg>
